<svg xmlns="http://www.w3.org/2000/svg" width="1800" height="480" viewBox="0 0 1800 480" role="img" aria-labelledby="title desc">
  <title id="title">PilotSeal Logo</title>
  <desc id="desc">PilotSeal wordmark with PS monogram and aircraft flight arc.</desc>
  <defs>
    <linearGradient id="markBg" x1="46" y1="36" x2="434" y2="444" gradientUnits="userSpaceOnUse">
      <stop offset="0" stop-color="#123a75"/>
      <stop offset="1" stop-color="#0b1f40"/>
    </linearGradient>
    <linearGradient id="markArc" x1="128" y1="248" x2="354" y2="140" gradientUnits="userSpaceOnUse">
      <stop offset="0" stop-color="#55c6ff"/>
      <stop offset="1" stop-color="#b9ecff"/>
    </linearGradient>
  </defs>

  <rect x="32" y="32" width="416" height="416" rx="112" fill="url(#markBg)"/>
  <circle cx="240" cy="240" r="148" fill="#0f2e5d" opacity="0.52"/>
  <path
    d="M128 265c0-72 68-129 147-137 38-4 72 1 103 6"
    fill="none"
    stroke="url(#markArc)"
    stroke-linecap="round"
    stroke-width="16"
  />
  <path
    d="M382 104l36-4c6-1 11 4 11 10 0 4-2 7-5 9l-30 18-18 3 8-14-20-1-14 10-8-4 12-15-17-7 5-5 21 2 10-8 9 6z"
    fill="#f7fbff"
  />
  <path
    d="M181 332V157h82c36 0 61 25 61 62 0 39-25 63-61 63h-39v50h-43zm43-87h31c17 0 27-10 27-25 0-17-10-26-27-26h-31v51z"
    fill="#f7fbff"
  />
  <path
    d="M407 201c-10-9-22-14-40-14-28 0-48 14-48 36 0 18 13 29 44 37 23 6 31 12 31 21 0 12-12 20-32 20-18 0-34-7-47-20l-28 33c18 17 45 28 75 28 48 0 82-24 82-64 0-30-18-48-58-59-21-5-28-11-28-20 0-11 10-18 26-18 14 0 28 5 40 15l27-29z"
    fill="#8fd8ff"
  />
  <path
    d="M389 344l18 19 39-41"
    fill="none"
    stroke="#f3c768"
    stroke-linecap="round"
    stroke-linejoin="round"
    stroke-width="12"
  />
  <text
    x="514"
    y="232"
    fill="#10294f"
    font-family="Inter, Arial, Helvetica, sans-serif"
    font-size="172"
    font-weight="700"
    letter-spacing="-7"
  >
    PilotSeal
  </text>
  <text
    x="520"
    y="306"
    fill="#4d6b92"
    font-family="Inter, Arial, Helvetica, sans-serif"
    font-size="42"
    font-weight="500"
    letter-spacing="2"
  >
    FAA WORKFLOW TOOLS FOR CFIs AND STUDENTS
  </text>
</svg>
