<svg xmlns="http://www.w3.org/2000/svg" width="1024" height="1024" viewBox="0 0 1024 1024" role="img" aria-labelledby="title desc">
  <title id="title">PilotSeal Monochrome Navy Mark</title>
  <desc id="desc">PilotSeal transparent monochrome navy mark for print and footer use.</desc>
  <g fill="#123a75" stroke="#123a75">
    <path d="M244 561C244 418 375 304 535 287c83-9 155 6 223 18" fill="none" stroke-linecap="round" stroke-width="34"/>
    <path d="M766 242l82-10c13-2 25 8 25 21 0 8-4 15-11 19l-70 42-43 6 17-32-44-2-34 23-17-7 28-34-39-14 13-12 47 4 24-20 22 16z"/>
    <path d="M359 695V347h182c79 0 136 49 136 125 0 79-57 128-136 128H455v95H359zm96-177h72c35 0 55-18 55-46 0-30-20-47-55-47h-72v93z"/>
    <path d="M741 437c-19-17-45-27-79-27-56 0-96 29-96 72 0 37 25 59 87 76 45 12 59 22 59 42 0 24-24 39-63 39-35 0-66-14-93-40l-56 64c35 35 88 56 147 56 92 0 160-47 160-126 0-59-35-93-114-114-41-11-55-21-55-40 0-21 20-35 51-35 28 0 55 10 79 30l52-57z"/>
    <path d="M706 719l37 37 76-79" fill="none" stroke-linecap="round" stroke-linejoin="round" stroke-width="24"/>
  </g>
</svg>
