<svg xmlns="http://www.w3.org/2000/svg" width="1024" height="1024" viewBox="0 0 1024 1024">
  <defs>
    <linearGradient id="bg" x1="160" y1="120" x2="864" y2="904" gradientUnits="userSpaceOnUse">
      <stop offset="0" stop-color="#123a75"/>
      <stop offset="1" stop-color="#0b1f40"/>
    </linearGradient>
    <linearGradient id="arc" x1="218" y1="485" x2="772" y2="258" gradientUnits="userSpaceOnUse">
      <stop offset="0" stop-color="#55c6ff"/>
      <stop offset="1" stop-color="#b9ecff"/>
    </linearGradient>
  </defs>

  <rect x="64" y="64" width="896" height="896" rx="232" fill="url(#bg)"/>
  <circle cx="512" cy="512" r="330" fill="#0f2e5d" opacity="0.55"/>
  <path
    d="M244 561C244 418 375 304 535 287c83-9 155 6 223 18"
    fill="none"
    stroke="url(#arc)"
    stroke-linecap="round"
    stroke-width="34"
  />
  <path
    d="M766 242l82-10c13-2 25 8 25 21 0 8-4 15-11 19l-70 42-43 6 17-32-44-2-34 23-17-7 28-34-39-14 13-12 47 4 24-20 22 16z"
    fill="#f7fbff"
  />
  <path
    d="M359 695V347h182c79 0 136 49 136 125 0 79-57 128-136 128H455v95H359zm96-177h72c35 0 55-18 55-46 0-30-20-47-55-47h-72v93z"
    fill="#f7fbff"
  />
  <path
    d="M741 437c-19-17-45-27-79-27-56 0-96 29-96 72 0 37 25 59 87 76 45 12 59 22 59 42 0 24-24 39-63 39-35 0-66-14-93-40l-56 64c35 35 88 56 147 56 92 0 160-47 160-126 0-59-35-93-114-114-41-11-55-21-55-40 0-21 20-35 51-35 28 0 55 10 79 30l52-57z"
    fill="#8fd8ff"
  />
  <path
    d="M706 719l37 37 76-79"
    fill="none"
    stroke="#f3c768"
    stroke-linecap="round"
    stroke-linejoin="round"
    stroke-width="24"
  />
</svg>
