<svg width="1600" height="960" viewBox="0 0 1600 960" fill="none" xmlns="http://www.w3.org/2000/svg">
  <rect width="1600" height="960" rx="56" fill="#EEF4FB"/>
  <rect x="44" y="44" width="1512" height="872" rx="40" fill="url(#paint0_linear_213_5)"/>
  <rect x="112" y="132" width="612" height="520" rx="38" fill="url(#paint1_linear_213_5)"/>
  <rect x="756" y="132" width="732" height="520" rx="38" fill="#F8FBFF"/>
  <rect x="186" y="202" width="464" height="310" rx="30" fill="#102A3F"/>
  <path d="M242 450C286 364 364 374 426 332C474 300 530 294 598 250" stroke="#89B9E5" stroke-width="10" stroke-linecap="round" stroke-dasharray="16 16"/>
  <circle cx="398" cy="380" r="18" fill="#D4A13F"/>
  <circle cx="518" cy="324" r="16" fill="#89B9E5"/>
  <path d="M584 404L618 438L680 360" stroke="#D4A13F" stroke-width="18" stroke-linecap="round" stroke-linejoin="round"/>
  <rect x="188" y="544" width="210" height="54" rx="18" fill="#367CCC"/>
  <rect x="814" y="206" width="214" height="88" rx="20" fill="#EFF6FD" stroke="#C9DCEE" stroke-width="6"/>
  <rect x="1060" y="206" width="214" height="88" rx="20" fill="#EFF6FD" stroke="#C9DCEE" stroke-width="6"/>
  <rect x="814" y="330" width="560" height="214" rx="28" fill="#FFFFFF" stroke="#C9DCEE" stroke-width="6"/>
  <path d="M886 402H1224" stroke="#1B4A73" stroke-width="10" stroke-linecap="round"/>
  <path d="M886 458H1286" stroke="#85B5E0" stroke-width="8" stroke-linecap="round"/>
  <path d="M886 506H1184" stroke="#CFDDEC" stroke-width="8" stroke-linecap="round"/>
  <circle cx="920" cy="250" r="22" fill="#E1ECFA"/>
  <path d="M902 254C916 238 930 232 952 234" stroke="#7AAFE0" stroke-width="10" stroke-linecap="round"/>
  <path d="M900 270H948" stroke="#D4A13F" stroke-width="10" stroke-linecap="round"/>
  <circle cx="1168" cy="250" r="22" fill="#E1ECFA"/>
  <path d="M1168 234V250L1180 260" stroke="#1B4A73" stroke-width="10" stroke-linecap="round" stroke-linejoin="round"/>
  <path d="M1304 190C1362 172 1412 176 1462 210" stroke="#D4A13F" stroke-width="6" stroke-linecap="round" stroke-dasharray="12 18"/>
  <defs>
    <linearGradient id="paint0_linear_213_5" x1="150" y1="116" x2="1458" y2="836" gradientUnits="userSpaceOnUse">
      <stop stop-color="#EAF2FB"/>
      <stop offset="1" stop-color="#E2EDF9"/>
    </linearGradient>
    <linearGradient id="paint1_linear_213_5" x1="166" y1="132" x2="640" y2="652" gradientUnits="userSpaceOnUse">
      <stop stop-color="#1C4B74"/>
      <stop offset="1" stop-color="#153954"/>
    </linearGradient>
  </defs>
</svg>
