<svg width="1600" height="960" viewBox="0 0 1600 960" fill="none" xmlns="http://www.w3.org/2000/svg">
  <rect width="1600" height="960" rx="56" fill="#EEF4FB"/>
  <rect x="44" y="44" width="1512" height="872" rx="40" fill="url(#paint0_linear_214_7)"/>
  <rect x="112" y="144" width="740" height="496" rx="38" fill="#FFFFFF"/>
  <rect x="892" y="144" width="596" height="496" rx="38" fill="url(#paint1_linear_214_7)"/>
  <path d="M216 558V256H748" stroke="#1C4B74" stroke-width="8" stroke-linecap="round"/>
  <path d="M302 512L420 394H586L702 284" stroke="#1C4B74" stroke-width="10" stroke-linecap="round" stroke-linejoin="round"/>
  <path d="M302 512V394H534V512H302Z" stroke="#D4A13F" stroke-width="8" stroke-linecap="round" stroke-linejoin="round" stroke-dasharray="14 12"/>
  <circle cx="622" cy="422" r="16" fill="#1C4B74"/>
  <path d="M622 422L674 332" stroke="#7DAFE0" stroke-width="8" stroke-linecap="round"/>
  <circle cx="674" cy="332" r="16" fill="#7DAFE0"/>
  <path d="M950 226H1350" stroke="#A3C1DD" stroke-width="10" stroke-linecap="round"/>
  <path d="M950 286H1240" stroke="#7DAFE0" stroke-width="8" stroke-linecap="round"/>
  <rect x="972" y="358" width="436" height="176" rx="28" fill="#173B56"/>
  <path d="M1088 414H1292" stroke="#F4F8FD" stroke-width="12" stroke-linecap="round"/>
  <path d="M1190 326V496" stroke="#F4F8FD" stroke-width="12" stroke-linecap="round"/>
  <path d="M984 554C1040 504 1118 474 1234 468" stroke="#D4A13F" stroke-width="8" stroke-linecap="round" stroke-dasharray="12 14"/>
  <path d="M1318 198C1376 182 1424 188 1470 220" stroke="#D4A13F" stroke-width="6" stroke-linecap="round" stroke-dasharray="12 18"/>
  <defs>
    <linearGradient id="paint0_linear_214_7" x1="150" y1="118" x2="1458" y2="836" gradientUnits="userSpaceOnUse">
      <stop stop-color="#EAF2FB"/>
      <stop offset="1" stop-color="#E2EDF9"/>
    </linearGradient>
    <linearGradient id="paint1_linear_214_7" x1="1010" y1="144" x2="1386" y2="640" gradientUnits="userSpaceOnUse">
      <stop stop-color="#204D76"/>
      <stop offset="1" stop-color="#153A57"/>
    </linearGradient>
  </defs>
</svg>
