<svg width="1600" height="960" viewBox="0 0 1600 960" fill="none" xmlns="http://www.w3.org/2000/svg">
  <rect width="1600" height="960" rx="56" fill="#EEF4FB"/>
  <rect x="44" y="44" width="1512" height="872" rx="40" fill="url(#paint0_linear_212_2)"/>
  <rect x="112" y="132" width="840" height="520" rx="38" fill="#D8E7F8"/>
  <rect x="972" y="132" width="516" height="520" rx="38" fill="url(#paint1_linear_212_2)"/>
  <rect x="176" y="192" width="604" height="400" rx="30" fill="#F7FBFF" fill-opacity="0.92"/>
  <rect x="236" y="248" width="236" height="26" rx="13" fill="#B8D0EA"/>
  <rect x="236" y="308" width="430" height="16" rx="8" fill="#D2E1F1"/>
  <rect x="236" y="350" width="352" height="16" rx="8" fill="#D2E1F1"/>
  <rect x="236" y="424" width="188" height="108" rx="22" fill="#EAF3FC" stroke="#B7CFE8" stroke-width="6"/>
  <path d="M274 476H382" stroke="#244E75" stroke-width="10" stroke-linecap="round"/>
  <path d="M274 510H346" stroke="#8BB3DA" stroke-width="8" stroke-linecap="round"/>
  <rect x="458" y="424" width="188" height="108" rx="22" fill="#EAF3FC" stroke="#B7CFE8" stroke-width="6"/>
  <circle cx="550" cy="472" r="22" fill="#DCEBFA"/>
  <path d="M536 472L546 482L566 458" stroke="#D4A13F" stroke-width="12" stroke-linecap="round" stroke-linejoin="round"/>
  <rect x="1048" y="194" width="360" height="396" rx="30" fill="#143A5A"/>
  <path d="M1118 274H1318" stroke="#97BCE0" stroke-width="10" stroke-linecap="round"/>
  <path d="M1118 346H1348" stroke="#97BCE0" stroke-width="10" stroke-linecap="round"/>
  <path d="M1118 418H1298" stroke="#97BCE0" stroke-width="10" stroke-linecap="round"/>
  <rect x="1128" y="470" width="180" height="94" rx="22" fill="#204B73"/>
  <path d="M1200 516L1234 550L1298 474" stroke="#D4A13F" stroke-width="22" stroke-linecap="round" stroke-linejoin="round"/>
  <path d="M1168 196C1208 206 1248 228 1286 266" stroke="#7DB0DD" stroke-width="8" stroke-linecap="round"/>
  <path d="M1282 254C1318 220 1360 198 1422 180" stroke="#D4A13F" stroke-width="6" stroke-linecap="round" stroke-dasharray="12 18"/>
  <defs>
    <linearGradient id="paint0_linear_212_2" x1="144" y1="114" x2="1460" y2="836" gradientUnits="userSpaceOnUse">
      <stop stop-color="#EAF2FB"/>
      <stop offset="1" stop-color="#E2EDF9"/>
    </linearGradient>
    <linearGradient id="paint1_linear_212_2" x1="1088" y1="132" x2="1378" y2="652" gradientUnits="userSpaceOnUse">
      <stop stop-color="#214D76"/>
      <stop offset="1" stop-color="#163B5B"/>
    </linearGradient>
  </defs>
</svg>
